HIERARCHY
ROOT SpineBase
{
  OFFSET 0.000000 0.000000 0.000000
  CHANNELS 6 Xposition Yposition Zposition Zrotation Xrotation Yrotation
  JOINT SpineMid
  {
    OFFSET 0.000000 28.980094 0.000000
    CHANNELS 3 Zrotation Xrotation Yrotation
    JOINT SpineShoulder
    {
      OFFSET -0.204662 21.586269 -0.748470
      CHANNELS 3 Zrotation Xrotation Yrotation
      JOINT Neck
      {
        OFFSET -0.108038 7.169048 -0.565308
        CHANNELS 3 Zrotation Xrotation Yrotation
        JOINT Head
        {
          OFFSET 7.885880 8.189262 6.062935
          CHANNELS 3 Zrotation Xrotation Yrotation
          End Site
          {
            OFFSET 0 0 0
          }
        }
      }
      JOINT ShoulderLeft
      {
        OFFSET -11.501686 11.477991 -0.027798
        CHANNELS 3 Zrotation Xrotation Yrotation
        JOINT ElbowLeft
        {
          OFFSET -16.684911 13.782920 -2.501360
          CHANNELS 3 Zrotation Xrotation Yrotation
          JOINT WristLeft
          {
            OFFSET 28.438168 6.636742 -7.230942
            CHANNELS 3 Zrotation Xrotation Yrotation
            JOINT HandLeft
            {
              OFFSET 2.388961 -1.943431 0.920871
              CHANNELS 3 Zrotation Xrotation Yrotation
              JOINT HandTipLeft
              {
                OFFSET 3.446857 -1.552514 3.552882
                CHANNELS 3 Zrotation Xrotation Yrotation
                End Site
                {
                  OFFSET 0 0 0
                }
              }
              JOINT ThumbLeft
              {
                OFFSET -1.345003 -2.155401 2.417781
                CHANNELS 3 Zrotation Xrotation Yrotation
                End Site
                {
                  OFFSET 0 0 0
                }
              }
            }
          }
        }
      }
      JOINT ShoulderRight
      {
        OFFSET 6.620660 -3.028087 -12.505779
        CHANNELS 3 Zrotation Xrotation Yrotation
        JOINT ElbowRight
        {
          OFFSET 4.114136 -22.409836 -7.926213
          CHANNELS 3 Zrotation Xrotation Yrotation
          JOINT WristRight
          {
            OFFSET -7.891485 -23.501247 -1.891194
            CHANNELS 3 Zrotation Xrotation Yrotation
            JOINT HandRight
            {
              OFFSET -2.151399 -10.230347 0.917999
              CHANNELS 3 Zrotation Xrotation Yrotation
              JOINT HandTipRight
              {
                OFFSET -3.752301 -5.222318 -1.495275
                CHANNELS 3 Zrotation Xrotation Yrotation
                End Site
                {
                  OFFSET 0 0 0
                }
              }
              JOINT ThumbRight
              {
                OFFSET 4.946502 -1.702073 3.792692
                CHANNELS 3 Zrotation Xrotation Yrotation
                End Site
                {
                  OFFSET 0 0 0
                }
              }
            }
          }
        }
      }
    }
  }
  JOINT HipLeft
  {
    OFFSET -5.051623 1.286024 2.681721
    CHANNELS 3 Zrotation Xrotation Yrotation
    JOINT KneeLeft
    {
      OFFSET 15.669759 -19.322895 -15.475412
      CHANNELS 3 Zrotation Xrotation Yrotation
      JOINT AnkleLeft
      {
        OFFSET 1.741403 -38.680446 4.257427
        CHANNELS 3 Zrotation Xrotation Yrotation
        JOINT FootLeft
        {
          OFFSET -5.248054 -3.407306 -11.604837
          CHANNELS 3 Zrotation Xrotation Yrotation
          End Site
          {
            OFFSET 0 0 0
          }
        }
      }
    }
  }
  JOINT HipRight
  {
    OFFSET 4.560506 1.122168 -9.541644
    CHANNELS 3 Zrotation Xrotation Yrotation
    JOINT KneeRight
    {
      OFFSET -0.103621 -35.300054 -0.918392
      CHANNELS 3 Zrotation Xrotation Yrotation
      JOINT AnkleRight
      {
        OFFSET 9.389109 -34.633384 3.686006
        CHANNELS 3 Zrotation Xrotation Yrotation
        JOINT FootRight
        {
          OFFSET -5.256168 -3.324582 -11.558510
          CHANNELS 3 Zrotation Xrotation Yrotation
          End Site
          {
            OFFSET 0 0 0
          }
        }
      }
    }
  }
}
MOTION
Frames: 5
Frame Time: 0.033333
18.593009 99.623407 324.765576 -0.000000 0.000000 51.819432 -0.000000 0.000000 -51.819432 -0.000000 0.000000 0.000000 -0.000000 0.000000 0.000000 0.000000 0.000000 0.000000 -0.000000 0.000000 0.000000 -0.000000 0.000000 0.000000 -0.000000 0.000000 0.000000 -0.000000 0.000000 0.000000 0.000000 0.000000 0.000000 0.000000 0.000000 0.000000 -0.000000 0.000000 0.000000 -0.000000 0.000000 0.000000 -0.000000 0.000000 0.000000 -0.000000 0.000000 0.000000 0.000000 0.000000 0.000000 0.000000 0.000000 0.000000 -0.000000 0.000000 -51.819432 -0.000000 0.000000 0.000000 -0.000000 0.000000 0.000000 0.000000 0.000000 0.000000 -0.000000 0.000000 -51.819432 -0.000000 0.000000 0.000000 -0.000000 0.000000 0.000000 0.000000 0.000000 0.000000
18.305601 99.624185 324.645758 -0.027129 0.139058 51.987836 -0.092854 -0.107011 -51.987890 -0.000000 0.000000 0.000000 -0.000000 0.000000 0.000000 0.000000 0.000000 0.000000 -9.176784 -2.037500 -4.742245 5.955725 1.972494 3.601782 9.109337 -0.854009 1.772344 -10.756950 6.785751 -0.073429 0.000000 0.000000 0.000000 0.000000 0.000000 0.000000 -0.000000 0.000000 0.000000 0.767320 0.347650 -0.181178 -2.472127 -0.495193 0.040663 6.567472 -2.334845 0.629994 0.000000 0.000000 0.000000 0.000000 0.000000 0.000000 1.380617 -1.314149 -53.101565 -1.849881 -0.453760 1.124624 -0.000000 0.000000 0.000000 0.000000 0.000000 0.000000 -0.101438 -0.920754 -52.003021 -0.635997 0.507710 0.017872 -0.000000 0.000000 0.000000 0.000000 0.000000 0.000000
18.054411 99.614844 324.517805 -0.018645 0.257591 52.171054 -0.192022 -0.172708 -52.171302 -0.000000 0.000000 0.000000 -1.009071 0.421100 0.341468 0.000000 0.000000 0.000000 -19.794590 -3.376493 -10.430843 11.664575 4.210082 7.210107 16.379165 0.079360 3.787663 -22.936373 16.527355 -0.959061 0.000000 0.000000 0.000000 0.000000 0.000000 0.000000 -0.600414 0.611643 0.327555 1.983975 -0.004972 -0.633579 -4.621520 -0.878796 0.030134 11.257327 -3.676741 1.074951 0.000000 0.000000 0.000000 0.000000 0.000000 0.000000 2.217081 -2.294799 -54.106197 -3.130875 -0.708384 1.967423 -0.000000 0.000000 0.000000 0.000000 0.000000 0.000000 -0.201894 -1.598311 -52.198010 -1.120454 0.881545 0.035176 -0.000000 0.000000 0.000000 0.000000 0.000000 0.000000
17.839439 99.595385 324.381717 0.025252 0.355858 52.369420 -0.297246 -0.197276 -52.370010 -0.000000 0.000000 0.000000 -1.386877 0.517963 0.526418 0.000000 0.000000 0.000000 -30.990820 -3.610173 -16.506803 15.647422 6.002742 10.344732 23.265912 2.731014 6.223855 -37.980888 30.151850 -2.406066 0.000000 0.000000 0.000000 0.000000 0.000000 0.000000 -0.806781 0.833413 0.443662 2.654661 -0.041957 -0.840901 -6.324979 -1.132204 -0.007746 14.376111 -4.325451 1.284528 0.000000 0.000000 0.000000 0.000000 0.000000 0.000000 2.514653 -2.911347 -54.850424 -3.836843 -0.738314 2.531992 -0.000000 0.000000 0.000000 0.000000 0.000000 0.000000 -0.299847 -2.043732 -52.404762 -1.461623 1.128423 0.049096 -0.000000 0.000000 0.000000 0.000000 0.000000 0.000000
17.660685 99.565806 324.237494 0.104444 0.434073 52.583386 -0.408220 -0.180789 -52.584426 -0.000000 0.000000 0.000000 -1.680788 0.539774 0.719911 0.000000 0.000000 0.000000 -41.596706 -2.722532 -22.179117 15.817359 6.120862 12.443260 31.011197 7.476962 9.490214 -50.394215 43.297921 -4.723223 0.000000 0.000000 0.000000 0.000000 0.000000 0.000000 -0.950937 1.000544 0.527513 3.110858 -0.098719 -0.978694 -7.469035 -1.242557 -0.050109 16.058661 -4.445063 1.249206 0.000000 0.000000 0.000000 0.000000 0.000000 0.000000 2.281465 -3.144752 -55.344340 -3.966411 -0.528960 2.819684 -0.233105 -0.144954 1.018064 0.000000 0.000000 0.000000 -0.393329 -2.263912 -52.623725 -1.664693 1.252541 0.057815 -0.223395 -0.131202 0.984712 0.000000 0.000000 0.000000
